<svg width="20" height="20" viewBox="0 0 20 20" fill="none" xmlns="http://www.w3.org/2000/svg"><rect width="20" height="20" rx="10" fill="color(display-p3 .302 .4196 .9961)"/><g clip-path="url(#clip0_766_46233)"><g clip-path="url(#clip1_766_46233)"><path d="M15.874 6.241c-.127-.062-.182.057-.256.117-.026.02-.047.045-.069.068-.185.199-.402.329-.686.313a1.338 1.338 0 00-1.082.424c-.066-.391-.287-.624-.623-.774-.176-.078-.354-.155-.477-.325-.086-.12-.11-.255-.153-.387-.027-.08-.055-.161-.146-.175-.1-.015-.14.068-.178.138a1.823 1.823 0 00-.212.92c.014.718.317 1.29.92 1.697.068.046.085.093.064.161-.041.14-.09.276-.133.417-.027.089-.069.108-.165.07a2.763 2.763 0 01-.868-.59c-.428-.414-.815-.871-1.298-1.23a5.675 5.675 0 00-.345-.235c-.492-.478.066-.871.194-.918.135-.049.047-.216-.389-.214-.436.002-.835.147-1.344.342a1.527 1.527 0 01-.232.069 4.799 4.799 0 00-1.442-.051c-.942.104-1.695.55-2.248 1.311-.665.914-.822 1.953-.63 3.036.201 1.142.784 2.087 1.68 2.826.929.767 1.998 1.143 3.219 1.07.741-.042 1.566-.141 2.497-.93.235.117.481.164.89.199.315.03.618-.015.852-.064.368-.078.342-.418.21-.48-1.077-.502-.841-.298-1.056-.463.547-.649 1.373-1.322 1.695-3.502.025-.173.004-.282 0-.422-.002-.086.018-.119.115-.129.271-.028.533-.108.773-.237.698-.381.98-1.007 1.046-1.758.01-.115-.002-.234-.123-.294zM9.79 13c-1.044-.821-1.55-1.091-1.76-1.08-.196.012-.16.236-.117.382a1.4 1.4 0 00.185.369c.057.084.096.208-.056.302-.337.207-.921-.07-.949-.084-.68-.401-1.25-.93-1.65-1.653a5.05 5.05 0 01-.649-2.242c-.01-.192.046-.26.238-.296.253-.048.51-.054.765-.019 1.066.156 1.973.633 2.734 1.387.434.43.762.943 1.101 1.445.36.534.747 1.042 1.24 1.458.174.146.313.257.446.338-.402.045-1.07.055-1.528-.307zm.5-3.22a.153.153 0 01.208-.143.15.15 0 01.1.143.154.154 0 01-.096.143.153.153 0 01-.059.011.151.151 0 01-.152-.154zm1.556.798c-.1.04-.2.075-.296.08a.623.623 0 01-.399-.127c-.136-.115-.235-.179-.275-.379a.862.862 0 01.008-.294c.034-.164-.005-.269-.12-.364-.093-.078-.213-.099-.344-.099a.28.28 0 01-.127-.039.126.126 0 01-.057-.179.582.582 0 01.096-.105c.178-.101.383-.068.573.008.176.072.309.204.5.391.196.226.232.288.343.457.088.132.168.268.223.424.033.098-.01.177-.126.226z" fill="#fff"/></g></g><defs><clipPath id="clip0_766_46233"><path fill="#fff" transform="translate(4 4)" d="M0 0h12v12H0z"/></clipPath><clipPath id="clip1_766_46233"><path fill="#fff" transform="translate(4 4)" d="M0 0h12v12H0z"/></clipPath></defs></svg>