<svg width="20" height="20" viewBox="0 0 20 20" fill="none" xmlns="http://www.w3.org/2000/svg"><rect width="20" height="20" rx="10" fill="#000"/><g clip-path="url(#clip0_1540_50062)" fill-rule="evenodd" clip-rule="evenodd"><path d="M13.317 7.333c.07-.09.13-.172.195-.251.03-.037.028-.066-.001-.105-.281-.369-.308-.778-.146-1.194.121-.313.39-.46.717-.49.205-.02.405.001.591.1.245.131.387.33.433.606.037.219.03.433-.032.646-.11.376-.38.571-.751.62-.308.042-.62.047-.93.068h-.076z" fill="color(display-p3 .0078 .4784 1)"/><path d="M12.555 5.647h-1.854L9.233 8.995H7.158V5.662H5.5v8.624h1.659v-3.633h2.924a1.297 1.297 0 001.176-.75v4.383h1.658v-3.633a1.659 1.659 0 00-1.537-1.655v-.004h-.911a1.689 1.689 0 00.995-.908l1.091-2.439z" fill="#fff"/></g><defs><clipPath id="clip0_1540_50062"><path fill="#fff" transform="translate(4.855 4.857)" d="M0 0h10.286v10.286H0z"/></clipPath></defs></svg>