<svg width="20" height="20" viewBox="0 0 20 20" fill="none" xmlns="http://www.w3.org/2000/svg">
<rect width="20" height="20" rx="10" fill="url(#paint0_linear_2271_154043)" style=""/>
<g clip-path="url(#clip0_2271_154043)">
<path d="M12.3173 4.58337C12.9434 4.58337 13.451 5.0855 13.451 5.70462V12.476C13.4553 12.5797 13.4997 12.6778 13.5749 12.7494C13.6501 12.821 13.7501 12.8607 13.854 12.86C13.9577 12.8606 14.0576 12.8208 14.1327 12.7492C14.2077 12.6776 14.2521 12.5797 14.2564 12.476V8.42867C14.2572 8.28213 14.2868 8.13719 14.3436 8.00211C14.4004 7.86703 14.4833 7.74445 14.5874 7.64139C14.6916 7.53833 14.8151 7.4568 14.9507 7.40144C15.0864 7.34609 15.2317 7.31801 15.3782 7.31879C15.5248 7.31801 15.6701 7.34611 15.8058 7.4015C15.9415 7.45688 16.065 7.53847 16.1692 7.64158C16.2733 7.7447 16.3562 7.86734 16.4129 8.00248C16.4697 8.13762 16.4993 8.28263 16.5 8.42921V11.9831C16.4994 12.0762 16.4619 12.1653 16.3957 12.2308C16.3295 12.2963 16.24 12.3329 16.1468 12.3325C16.1007 12.3327 16.0549 12.3239 16.0121 12.3065C15.9694 12.2891 15.9305 12.2635 15.8976 12.231C15.8648 12.1986 15.8386 12.16 15.8207 12.1174C15.8028 12.0749 15.7934 12.0292 15.7931 11.9831V8.42921C15.7928 8.375 15.7819 8.32139 15.7609 8.27142C15.7399 8.22145 15.7092 8.17611 15.6707 8.13798C15.6322 8.09986 15.5865 8.06969 15.5363 8.04921C15.4861 8.02873 15.4324 8.01834 15.3782 8.01862C15.324 8.01834 15.2703 8.02873 15.2201 8.04921C15.1699 8.06969 15.1242 8.09986 15.0857 8.13798C15.0472 8.17611 15.0165 8.22145 14.9955 8.27142C14.9745 8.32139 14.9636 8.375 14.9633 8.42921V12.4765C14.9625 12.6214 14.9332 12.7648 14.877 12.8983C14.8209 13.0319 14.7389 13.1531 14.6359 13.255C14.5329 13.3569 14.4108 13.4375 14.2767 13.4923C14.1425 13.547 13.9989 13.5747 13.854 13.574C13.7091 13.5747 13.5654 13.547 13.4313 13.4923C13.2971 13.4375 13.175 13.3569 13.072 13.255C12.969 13.1531 12.8871 13.0319 12.8309 12.8983C12.7747 12.7648 12.7454 12.6214 12.7446 12.4765V5.70571C12.7401 5.59568 12.6931 5.49169 12.6135 5.41562C12.5339 5.33954 12.4279 5.29732 12.3178 5.29783C12.2077 5.29717 12.1016 5.33926 12.0219 5.41523C11.9422 5.49121 11.895 5.59514 11.8904 5.70517L11.8899 14.3198C11.8882 14.6124 11.7703 14.8923 11.5623 15.0979C11.3543 15.3036 11.0731 15.4183 10.7805 15.4167C10.6356 15.4175 10.492 15.3897 10.3578 15.335C10.2237 15.2803 10.1016 15.1997 9.99859 15.0978C9.89558 14.9958 9.81365 14.8747 9.75747 14.7411C9.7013 14.6075 9.67199 14.4642 9.67121 14.3193V13.2717C9.67121 13.0789 9.82938 12.9223 10.0244 12.9223C10.2194 12.9223 10.3775 13.0789 10.3775 13.2717V14.3193C10.3775 14.4617 10.4545 14.5934 10.579 14.6649C10.7036 14.7358 10.8575 14.7358 10.982 14.6649C11.0432 14.6302 11.094 14.58 11.1294 14.5193C11.1648 14.4586 11.1835 14.3896 11.1835 14.3193V5.70462C11.1835 5.0855 11.6911 4.58337 12.3173 4.58337ZM9.24383 4.58337C9.87 4.58337 10.3775 5.0855 10.3775 5.70462V11.9462C10.3773 11.9924 10.368 12.038 10.3502 12.0806C10.3323 12.1231 10.3062 12.1617 10.2734 12.1942C10.2406 12.2266 10.2017 12.2523 10.159 12.2697C10.1163 12.2871 10.0705 12.2959 10.0244 12.2956C9.97824 12.2959 9.93249 12.2871 9.88976 12.2697C9.84703 12.2523 9.80816 12.2266 9.77535 12.1942C9.74255 12.1617 9.71647 12.1231 9.6986 12.0806C9.68073 12.038 9.67142 11.9924 9.67121 11.9462V5.70462C9.67049 5.59195 9.62508 5.48416 9.54495 5.40494C9.46481 5.32572 9.35651 5.28155 9.24383 5.28212C9.13115 5.28155 9.02285 5.32572 8.94272 5.40494C8.86259 5.48416 8.81717 5.59195 8.81646 5.70462V13.295C8.81474 13.5907 8.69568 13.8737 8.48543 14.0817C8.27519 14.2897 7.99096 14.4058 7.69521 14.4043C7.39936 14.4059 7.115 14.2899 6.90464 14.0819C6.69427 13.8739 6.57514 13.5908 6.57342 13.295V8.42921C6.57313 8.375 6.56218 8.32139 6.54117 8.27142C6.52017 8.22145 6.48952 8.17611 6.45099 8.13798C6.41247 8.09986 6.3668 8.06969 6.31662 8.04921C6.26643 8.02873 6.2127 8.01834 6.1585 8.01862C6.1043 8.01834 6.05057 8.02873 6.00038 8.04921C5.9502 8.06969 5.90453 8.09986 5.86601 8.13798C5.82748 8.17611 5.79684 8.22145 5.77583 8.27142C5.75482 8.32139 5.74387 8.375 5.74358 8.42921V10.4875C5.7428 10.6341 5.71317 10.779 5.65637 10.9141C5.59957 11.0492 5.51672 11.1718 5.41255 11.2748C5.30839 11.3779 5.18494 11.4594 5.04926 11.5148C4.91358 11.5701 4.76833 11.5982 4.62179 11.5974C4.47526 11.5982 4.33 11.5701 4.19432 11.5148C4.05865 11.4594 3.9352 11.3779 3.83103 11.2748C3.72686 11.1718 3.64401 11.0492 3.58721 10.9141C3.53042 10.779 3.50078 10.6341 3.5 10.4875L3.5 9.74112C3.5 9.54775 3.65817 9.39121 3.85317 9.39121C4.04817 9.39121 4.20687 9.54829 4.20687 9.74112V10.4875C4.20687 10.714 4.39267 10.8976 4.62179 10.8976C4.85092 10.8976 5.03671 10.714 5.03671 10.4875V8.42867C5.03843 8.13292 5.15749 7.84995 5.36774 7.64193C5.57798 7.43392 5.86221 7.31789 6.15796 7.31933C6.4538 7.31775 6.73817 7.43372 6.94853 7.64174C7.15889 7.84977 7.27803 8.13282 7.27975 8.42867V13.295C7.27975 13.522 7.46554 13.7056 7.69521 13.7056C7.92433 13.7056 8.11012 13.522 8.11012 13.295V5.70462C8.11012 5.0855 8.61767 4.58337 9.24383 4.58337Z" fill="white" style="fill:white;fill-opacity:1;"/>
</g>
<defs>
<linearGradient id="paint0_linear_2271_154043" x1="20" y1="10" x2="-4.63566e-07" y2="10" gradientUnits="userSpaceOnUse">
<stop stop-color="#FE603C" style="stop-color:#FE603C;stop-color:color(display-p3 0.9961 0.3765 0.2353);stop-opacity:1;"/>
<stop offset="1" stop-color="#E2167E" style="stop-color:#E2167E;stop-color:color(display-p3 0.8863 0.0863 0.4941);stop-opacity:1;"/>
</linearGradient>
<clipPath id="clip0_2271_154043">
<rect width="13" height="13" fill="white" style="fill:white;fill-opacity:1;" transform="translate(3.5 3.5)"/>
</clipPath>
</defs>
</svg>
