<svg width="20" height="20" viewBox="0 0 20 20" fill="none" xmlns="http://www.w3.org/2000/svg">
<rect width="20" height="20" rx="10" fill="#FF6900" style="fill:#FF6900;fill:color(display-p3 1.0000 0.4118 0.0000);fill-opacity:1;"/>
<g clip-path="url(#clip0_4456_46800)">
<path d="M17.1239 2.88072C15.4257 1.18907 12.9839 1 10 1C7.01235 1 4.56688 1.19125 2.8694 2.88747C1.17216 4.58298 1 7.02452 1 10.0088C1 12.9935 1.17216 15.4358 2.8701 17.1319C4.56748 18.8283 7.01267 19 10 19C12.9874 19 15.4321 18.8283 17.1295 17.1319C18.8273 15.4354 19 12.9935 19 10.0088C19 7.02068 18.8255 4.57652 17.1239 2.88072Z" fill="#FF6900" style="fill:#FF6900;fill:color(display-p3 1.0000 0.4118 0.0000);fill-opacity:1;"/>
<path d="M15.2249 6.57593C15.2868 6.57593 15.3382 6.62574 15.3382 6.68706V13.3452C15.3382 13.4055 15.2868 13.4555 15.2249 13.4555H13.7661C13.7035 13.4555 13.6526 13.4055 13.6526 13.3452V6.68706C13.6526 6.62578 13.7034 6.57593 13.7661 6.57593H15.2249ZM8.89407 6.57593C9.99457 6.57593 11.1452 6.62638 11.7128 7.19429C12.2707 7.75317 12.3312 8.86594 12.3335 9.94653V13.3451C12.3335 13.4054 12.2826 13.4555 12.2203 13.4555H10.7617C10.6992 13.4555 10.6482 13.4054 10.6482 13.3451V9.88807C10.6466 9.28454 10.6119 8.66428 10.3007 8.35202C10.0328 8.08339 9.5329 8.02187 9.01308 8.00911H6.36898C6.30696 8.00911 6.2562 8.05899 6.2562 8.11936V13.3452C6.2562 13.4055 6.2048 13.4555 6.14239 13.4555H4.68285C4.62048 13.4555 4.57031 13.4055 4.57031 13.3452V6.68706C4.57031 6.62578 4.62045 6.57593 4.68285 6.57593H8.89407ZM9.22057 9.22766C9.28266 9.22766 9.33311 9.27733 9.33311 9.33815V13.3452C9.33311 13.4055 9.28262 13.4555 9.22057 13.4555H7.68832C7.62532 13.4555 7.57484 13.4055 7.57484 13.3452V9.33815C7.57484 9.27733 7.62532 9.22766 7.68832 9.22766H9.22057Z" fill="white" style="fill:white;fill-opacity:1;"/>
</g>
<defs>
<clipPath id="clip0_4456_46800">
<rect width="18" height="18" fill="white" style="fill:white;fill-opacity:1;" transform="translate(1 1)"/>
</clipPath>
</defs>
</svg>
